<svg width="315" height="63" viewBox="0 0 315 63" fill="none" xmlns="http://www.w3.org/2000/svg">
<g clip-path="url(#clip0_113_208)">
<path d="M117.869 49.7611C112.166 49.7611 107.457 47.8699 103.743 44.0873C100.03 40.3048 98.166 35.6257 98.166 30.078C98.166 24.5303 100.03 19.8091 103.743 16.0406C107.457 12.2721 112.166 10.3809 117.869 10.3809C121.303 10.3809 124.456 11.1794 127.371 12.7905C130.271 14.4015 132.542 16.573 134.167 19.3048L127.721 23.0313C126.782 21.3362 125.451 20.0053 123.713 19.0526C121.975 18.1 120.027 17.6237 117.869 17.6237C114.184 17.6237 111.227 18.7725 108.971 21.084C106.714 23.3955 105.593 26.3795 105.593 30.064C105.593 33.7484 106.714 36.6764 108.971 38.9879C111.227 41.2995 114.198 42.4482 117.869 42.4482C120.027 42.4482 121.989 41.9719 123.741 41.0193C125.493 40.0666 126.81 38.7498 127.721 37.0967L134.167 40.8232C132.542 43.569 130.285 45.7404 127.399 47.3375C124.512 48.9486 121.345 49.7471 117.869 49.7471V49.7611Z" fill="white"/>
<path d="M146.822 26.6037C147.466 24.8666 148.545 23.5777 150.045 22.7091C151.544 21.8405 153.212 21.4062 155.048 21.4062V29.1954C152.918 28.9433 151.012 29.3776 149.344 30.4983C147.662 31.6191 146.822 33.4683 146.822 36.074V49.0047H139.843V21.9526H146.822V26.6037Z" fill="white"/>
<path d="M182.094 45.6143C179.319 48.3742 175.928 49.7471 171.92 49.7471C167.912 49.7471 164.535 48.3742 161.774 45.6143C159.013 42.8545 157.64 39.4782 157.64 35.4716C157.64 31.4649 159.013 28.0886 161.774 25.3288C164.535 22.569 167.912 21.196 171.92 21.196C175.928 21.196 179.319 22.569 182.094 25.3288C184.869 28.0886 186.256 31.4649 186.256 35.4716C186.256 39.4782 184.869 42.8545 182.094 45.6143ZM166.707 40.8371C168.094 42.2381 169.832 42.9525 171.934 42.9525C174.036 42.9525 175.774 42.2521 177.189 40.8371C178.591 39.4362 179.305 37.643 179.305 35.4856C179.305 33.3281 178.605 31.5349 177.189 30.134C175.788 28.7331 174.036 28.0186 171.934 28.0186C169.832 28.0186 168.094 28.7191 166.707 30.134C165.32 31.5349 164.619 33.3281 164.619 35.4856C164.619 37.643 165.32 39.4362 166.707 40.8371Z" fill="white"/>
<path d="M222.089 21.196C225.186 21.196 227.667 22.2047 229.53 24.2221C231.394 26.2394 232.319 28.9432 232.319 32.3335V48.9906H225.34V32.8098C225.34 31.1847 224.948 29.9239 224.149 29.0273C223.35 28.1307 222.243 27.6684 220.8 27.6684C219.216 27.6684 217.983 28.1867 217.086 29.2374C216.203 30.2881 215.755 31.8011 215.755 33.7764V48.9766H208.776V32.7958C208.776 31.1707 208.384 29.9099 207.585 29.0133C206.786 28.1167 205.679 27.6543 204.236 27.6543C202.68 27.6543 201.447 28.1727 200.536 29.2234C199.611 30.2741 199.163 31.7871 199.163 33.7624V48.9626H192.184V21.9525H199.163V24.8245C200.788 22.4149 203.297 21.196 206.688 21.196C210.079 21.196 212.462 22.4989 214.045 25.0906C215.853 22.4989 218.53 21.196 222.103 21.196H222.089Z" fill="white"/>
<path d="M254.993 21.1962C258.637 21.1962 261.748 22.5691 264.326 25.3289C266.905 28.0888 268.194 31.465 268.194 35.4717C268.194 39.4783 266.905 42.8546 264.326 45.6144C261.748 48.3743 258.637 49.7472 254.993 49.7472C251.35 49.7472 248.281 48.4303 246.221 45.7966V48.9907H239.242V11.1375H246.221V25.1468C248.281 22.513 251.196 21.1962 254.993 21.1962ZM248.337 40.9633C249.738 42.3923 251.532 43.1068 253.69 43.1068C255.848 43.1068 257.656 42.3923 259.071 40.9633C260.487 39.5344 261.215 37.7132 261.215 35.4717C261.215 33.2302 260.501 31.409 259.071 29.98C257.642 28.5511 255.848 27.8366 253.69 27.8366C251.532 27.8366 249.738 28.5511 248.337 29.98C246.935 31.409 246.221 33.2302 246.221 35.4717C246.221 37.7132 246.921 39.5344 248.337 40.9633Z" fill="white"/>
<path d="M277.555 18.7024C276.406 18.7024 275.397 18.2822 274.557 17.4276C273.716 16.587 273.281 15.5784 273.281 14.4296C273.281 13.2808 273.702 12.2722 274.557 11.4036C275.397 10.535 276.406 10.1007 277.555 10.1007C278.705 10.1007 279.77 10.535 280.61 11.4036C281.451 12.2722 281.886 13.2808 281.886 14.4296C281.886 15.5784 281.465 16.587 280.61 17.4276C279.756 18.2822 278.747 18.7024 277.555 18.7024ZM274.094 49.0046V21.9526H281.073V49.0046H274.094Z" fill="white"/>
<path d="M294.33 38.3436C295.269 41.7338 297.805 43.429 301.953 43.429C304.616 43.429 306.648 42.5324 308.007 40.7252L313.641 43.9753C310.964 47.8279 307.04 49.7612 301.841 49.7612C297.371 49.7612 293.783 48.4023 291.079 45.6985C288.374 42.9947 287.015 39.5904 287.015 35.4717C287.015 31.3529 288.346 27.9907 291.023 25.2729C293.699 22.555 297.119 21.1821 301.309 21.1821C305.274 21.1821 308.554 22.555 311.132 25.2869C313.711 28.0327 315 31.423 315 35.4576C315 36.3542 314.916 37.3209 314.734 38.3296H294.33V38.3436ZM294.218 32.936H308.021C307.629 31.1007 306.802 29.7278 305.555 28.8172C304.308 27.9206 302.892 27.4583 301.309 27.4583C299.431 27.4583 297.875 27.9346 296.656 28.8873C295.423 29.8399 294.624 31.1848 294.218 32.922V32.936Z" fill="white"/>
<path d="M77.0333 3.50234C77.0333 1.56905 75.4638 0 73.5299 0H59.5302C57.5963 0 56.0268 1.56905 56.0268 3.50234C56.0268 5.43562 57.5963 7.00467 59.5302 7.00467H73.5299C75.4498 7.00467 77.0333 5.43562 77.0333 3.50234Z" fill="#FFC433"/>
<path d="M11.1129 7.00467H45.5305C47.4504 7.00467 49.0339 5.43562 49.0339 3.50234C49.0339 1.56905 47.4644 0 45.5305 0H29.9473C22.6041 0.294196 16.326 2.63376 11.1269 7.00467H11.1129Z" fill="#FF3366"/>
<path d="M56.0268 31.4929C56.0268 33.4262 57.5963 34.9953 59.5302 34.9953C61.4641 34.9953 63.0336 33.4262 63.0336 31.4929C63.0336 29.5596 61.4641 27.9906 59.5302 27.9906C57.5963 27.9906 56.0268 29.5596 56.0268 31.4929Z" fill="#33C466"/>
<path d="M66.6352 13.9954H52.4113C50.5383 13.9954 49.02 15.5132 49.02 17.3856V17.6098C49.02 19.4822 50.5383 21 52.4113 21H66.6352C68.5082 21 70.0265 19.4822 70.0265 17.6098V17.3856C70.0265 15.5132 68.5082 13.9954 66.6352 13.9954Z" fill="#913391"/>
<path d="M42.0131 59.4977C42.0131 57.5784 40.4435 55.9954 38.5097 55.9954H11.1549C16.354 60.3663 22.6041 62.7058 29.9473 63H38.5237C40.4435 63 42.0271 61.431 42.0271 59.4977H42.0131Z" fill="#33C466"/>
<path d="M73.5299 63C75.4648 63 77.0333 61.432 77.0333 59.4977C77.0333 57.5634 75.4648 55.9954 73.5299 55.9954C71.595 55.9954 70.0265 57.5634 70.0265 59.4977C70.0265 61.432 71.595 63 73.5299 63Z" fill="#FF3366"/>
<path d="M52.5234 55.9954C50.6035 55.9954 49.02 57.5644 49.02 59.4977C49.02 61.431 50.5895 63 52.5234 63H59.5302C61.4501 63 63.0337 61.431 63.0337 59.4977C63.0337 57.5644 61.4641 55.9954 59.5302 55.9954H52.5234Z" fill="#FF3366"/>
<path d="M66.537 48.9906C68.4569 48.9906 70.0405 47.4216 70.0405 45.4883C70.0405 43.555 68.4709 41.986 66.537 41.986H1.59753C2.41033 44.4656 3.51741 46.8052 4.94681 48.9906H66.537Z" fill="#913391"/>
<path d="M49.0199 31.4929C49.0199 29.5737 47.4504 27.9906 45.5165 27.9906H0.168164C0.0560548 29.1254 0 30.3021 0 31.4929C0 32.6837 0.0560548 33.8465 0.168164 34.9953H45.5305C47.4504 34.9953 49.0339 33.4262 49.0339 31.4929H49.0199Z" fill="#FFC433"/>
<path d="M38.5237 21C40.4436 21 42.0271 19.431 42.0271 17.4977C42.0271 15.5644 40.4576 13.9954 38.5237 13.9954H4.9048C3.48942 16.1808 2.38234 18.5064 1.58356 21H38.5237Z" fill="#25B1E1"/>
</g>
<defs>
<clipPath id="clip0_113_208">
<rect width="315" height="63" fill="white"/>
</clipPath>
</defs>
</svg>
